<?xml version="1.0" encoding="utf-8"?>
<!-- Generator: Adobe Illustrator 19.0.0, SVG Export Plug-In . SVG Version: 6.00 Build 0)  -->
<svg version="1.1" id="Layer_1" xmlns="http://www.w3.org/2000/svg" xmlns:xlink="http://www.w3.org/1999/xlink" x="0px" y="0px"
	 viewBox="-241 333 128 128" style="enable-background:new -241 333 128 128;" xml:space="preserve">
<style type="text/css">
	.st0{fill:#03599C;}
</style>
<path class="st0" d="M-121.7,365.4l0.3-0.2c-0.6-1.1-1.6-2.2-2.5-2.7l-50-28.8c-0.8-0.5-2-0.7-3.2-0.7s-2.4,0.3-3.2,0.7l-49.7,28.9
	c-1.8,1-3,3.6-3,5.6v57.6c0,1.1,0.2,2.4,0.9,3.5l-0.2,0.1c0.5,0.8,1.2,1.6,2,2l49.9,28.9c0.8,0.5,2,0.7,3.2,0.7s2.4-0.3,3.2-0.7
	l49.7-28.9c1.8-1,3-3.6,3-5.6v-57.7C-121.2,367.3-121.3,366.3-121.7,365.4z M-177,422.3c9.4,0,17.7-5.2,22-12.8l13.3,7.9
	c-7,12.2-20.3,20.5-35.4,20.5c-22.6,0-40.9-18.3-40.9-40.9s18.3-40.9,40.9-40.9c15.2,0,28.5,8.4,35.5,20.7l-13.5,7.8
	c-4.3-7.8-12.6-12.9-22-12.9c-14,0-25.4,11.4-25.4,25.4C-202.4,410.9-191,422.3-177,422.3z"/>
</svg>
