<?xml version="1.0" encoding="utf-8"?>
<!-- Generator: Adobe Illustrator 19.0.0, SVG Export Plug-In . SVG Version: 6.00 Build 0)  -->
<svg version="1.1" id="Layer_1" xmlns="http://www.w3.org/2000/svg" xmlns:xlink="http://www.w3.org/1999/xlink" x="0px" y="0px"
	 viewBox="-289 381 32 32" style="enable-background:new -289 381 32 32;" xml:space="preserve">
<style type="text/css">
	.st0{fill:#1572B6;}
	.st1{fill:#33A9DC;}
	.st2{fill:#FFFFFF;}
	.st3{fill:#EBEBEB;}
</style>
<title>file_type_css</title>
<polygon class="st0" points="-284.5,409.8 -287.1,381 -258.9,381 -261.5,409.8 -273,413 "/>
<polygon class="st1" points="-273,410.6 -263.7,408 -261.5,383.4 -273,383.4 "/>
<polygon class="st2" points="-273,393.8 -268.3,393.8 -268,390.2 -273,390.2 -273,386.6 -273,386.6 -264.1,386.6 -264.2,387.6 
	-265.1,397.3 -273,397.3 "/>
<polygon class="st3" points="-273,403 -273,403 -276.9,401.9 -277.2,399.1 -279.1,399.1 -280.7,399.1 -280.2,404.6 -273,406.6 
	-273,406.6 "/>
<polygon class="st2" points="-268.6,397.2 -269.1,401.9 -273,403 -273,406.6 -265.7,404.6 -265.7,404 -265.1,397.2 "/>
<polygon class="st3" points="-273,386.6 -273,388.8 -273,390.2 -273,390.2 -281.5,390.2 -281.5,390.2 -281.5,390.2 -281.6,389.4 
	-281.8,387.6 -281.8,386.6 "/>
<polygon class="st3" points="-273,393.8 -273,396 -273,397.3 -273,397.3 -276.9,397.3 -276.9,397.3 -276.9,397.3 -277,396.5 
	-277.1,394.7 -277.2,393.8 "/>
</svg>
