<?xml version="1.0" encoding="utf-8"?>
<!-- Generator: Adobe Illustrator 19.0.0, SVG Export Plug-In . SVG Version: 6.00 Build 0)  -->
<svg version="1.1" id="Layer_1" xmlns="http://www.w3.org/2000/svg" xmlns:xlink="http://www.w3.org/1999/xlink" x="0px" y="0px"
	 viewBox="-289 381 32 32" style="enable-background:new -289 381 32 32;" xml:space="preserve">
<style type="text/css">
	.st0{fill:#E44F26;}
	.st1{fill:#F1662A;}
	.st2{fill:#EBEBEB;}
	.st3{fill:#FFFFFF;}
</style>
<title>file_type_html</title>
<polygon class="st0" points="-284.5,409.8 -287.1,381 -258.9,381 -261.5,409.8 -273,413 "/>
<polygon class="st1" points="-273,410.6 -263.7,408 -261.5,383.4 -273,383.4 "/>
<polygon class="st2" points="-273,394 -277.7,394 -278,390.4 -273,390.4 -273,386.9 -273,386.9 -281.9,386.9 -281.8,387.8 
	-280.9,397.6 -273,397.6 "/>
<polygon class="st2" points="-273,403.2 -273,403.2 -276.9,402.2 -277.2,399.3 -279.1,399.3 -280.7,399.3 -280.3,404.9 -273,406.9 
	-273,406.9 "/>
<polygon class="st3" points="-273,394 -273,397.6 -268.7,397.6 -269.1,402.2 -273,403.2 -273,406.9 -265.8,404.9 -265.7,404.3 
	-264.9,395 -264.8,394 -265.8,394 "/>
<polygon class="st3" points="-273,386.9 -273,389.1 -273,390.4 -273,390.4 -264.5,390.4 -264.5,390.4 -264.5,390.4 -264.4,389.6 
	-264.2,387.8 -264.2,386.9 "/>
</svg>
