<?xml version="1.0" encoding="utf-8"?>
<!-- Generator: Adobe Illustrator 19.0.0, SVG Export Plug-In . SVG Version: 6.00 Build 0)  -->
<svg version="1.1" id="Layer_1" xmlns="http://www.w3.org/2000/svg" xmlns:xlink="http://www.w3.org/1999/xlink" x="0px" y="0px"
	 viewBox="206 -116 1024 1024" style="enable-background:new 206 -116 1024 1024;" xml:space="preserve">
<style type="text/css">
	.st0{fill:url(#SVGID_1_);}
	.st1{fill:#4E4E4E;}
	.st2{fill:#767677;}
	.st3{fill:#F37726;}
	.st4{fill:#9E9E9E;}
	.st5{fill:#616262;}
</style>
<g>
	
		<linearGradient id="SVGID_1_" gradientUnits="userSpaceOnUse" x1="718" y1="908" x2="718" y2="-116" gradientTransform="matrix(1 0 0 -1 0 792)">
		<stop  offset="0" style="stop-color:#FFFFFF"/>
		<stop  offset="1" style="stop-color:#E5EFFC"/>
	</linearGradient>
	<path class="st0" d="M428.4-116h579.1c122.9,0,222.4,99.6,222.4,222.4v579.1c0,122.9-99.6,222.4-222.4,222.4H428.4
		C305.6,908,206,808.4,206,685.6V106.4C206-16.4,305.6-116,428.4-116z"/>
</g>
<g>
	<path class="st1" d="M431.5,433.7c0,22.7-1.8,30.2-6.5,35.6c-5.2,4.7-12,7.3-19,7.3l1.8,13c10.9,0.1,21.4-3.7,29.6-10.8
		c4.4-5.4,7.7-11.6,9.7-18.3c2-6.7,2.6-13.7,1.8-20.7v-86h-17.4v79.4V433.7z"/>
</g>
<g>
	<path class="st1" d="M561.4,423.4c0,9.7,0,18.5,0.8,26h-15.5l-1-15.5c-3.2,5.5-7.9,10-13.4,13.1c-5.5,3.1-11.8,4.7-18.2,4.6
		c-15.1,0-33-8.2-33-41.6v-55.5h17.4v52c0,18.1,5.6,30.2,21.3,30.2c3.2,0,6.4-0.6,9.4-1.8s5.7-3,8-5.3c2.3-2.3,4.1-5,5.3-8
		c1.2-3,1.8-6.2,1.8-9.4v-58.2h17.4v69L561.4,423.4z"/>
</g>
<g>
	<path class="st1" d="M594.4,385.5c0-12.1,0-22-0.8-30.9h15.6l0.8,16.2c3.5-5.9,8.5-10.7,14.5-13.9c6-3.3,12.8-4.8,19.6-4.5
		c23.1,0,40.6,19.4,40.6,48.2c0,34.1-20.9,50.9-43.5,50.9c-5.8,0.3-11.5-1-16.7-3.6c-5.2-2.6-9.6-6.5-12.8-11.3v52h-17.2V385.9
		V385.5z M611.5,410.8c0,2.4,0.3,4.7,0.8,7c1.5,5.8,4.8,10.9,9.5,14.5c4.7,3.6,10.5,5.6,16.5,5.6c18.3,0,29.1-14.9,29.1-36.7
		c0-19-10.1-35.2-28.5-35.2c-7.3,0.6-14,3.8-19.1,9.1c-5,5.2-8,12.1-8.3,19.4V410.8z"/>
</g>
<g>
	<path class="st1" d="M715.6,354.4l20.9,56c2.2,6.2,4.5,13.8,6.1,19.4c1.8-5.7,3.8-13,6.1-19.8l19-55.6H786l-26,67.6
		c-13,32.5-20.9,49.3-32.9,59.4c-6,5.5-13.4,9.4-21.3,11.2l-4.3-14.6c5.6-1.8,10.7-4.7,15.2-8.4c6.3-5.2,11.4-11.8,14.7-19.2
		c0.7-1.3,1.2-2.7,1.4-4.2c-0.1-1.6-0.5-3.1-1.2-4.5l-35.4-87.5h19L715.6,354.4z"/>
</g>
<g>
	<path class="st1" d="M832.3,327.2v27.3h25v13h-25v51.2c0,11.7,3.4,18.5,13,18.5c3.4,0.1,6.8-0.3,10.1-1.2l0.8,13
		c-5,1.7-10.2,2.5-15.5,2.3c-3.5,0.2-7-0.3-10.2-1.6c-3.3-1.3-6.2-3.2-8.6-5.7c-5.3-7.1-7.7-15.9-6.8-24.7v-52h-14.8v-13h15.1v-23.1
		L832.3,327.2z"/>
</g>
<g>
	<path class="st1" d="M889.3,405c-0.4,4.4,0.3,8.8,1.8,13c1.5,4.2,3.9,7.9,7.1,11c3.1,3.1,6.9,5.5,11,7.1c4.1,1.5,8.6,2.1,13,1.8
		c8.9,0.2,17.8-1.5,26-4.9l3,13c-10.1,4.2-20.9,6.1-31.8,5.8c-6.4,0.4-12.7-0.5-18.7-2.8c-6-2.3-11.4-5.8-15.8-10.3
		c-4.5-4.5-7.9-10-10.1-16c-2.2-6-3-12.4-2.5-18.7c0-28.6,17-51.2,44.8-51.2c31.2,0,39,27.3,39,44.7c0.2,2.7,0.2,5.4,0,8.1h-67.2
		L889.3,405z M940.3,392c0.5-3.5,0.3-7-0.7-10.4c-1-3.4-2.7-6.5-5-9.2c-2.3-2.7-5.1-4.8-8.3-6.3c-3.2-1.5-6.7-2.2-10.2-2.3
		c-7.1,0.5-13.8,3.7-18.8,8.9c-4.9,5.2-7.7,12-7.9,19.2H940.3z"/>
</g>
<g>
	<path class="st1" d="M982.5,384c0-11.2,0-20.8-0.8-29.6h15.6V373h0.8c1.6-5.7,5-10.8,9.7-14.5c4.7-3.7,10.4-5.9,16.3-6.2
		c1.6-0.2,3.3-0.2,4.9,0v16.2c-2-0.2-4-0.2-6,0c-5.9,0.2-11.5,2.6-15.8,6.7c-4.3,4.1-6.9,9.6-7.5,15.4c-0.5,2.7-0.7,5.4-0.8,8.1
		v50.6h-17.2v-65L982.5,384z"/>
</g>
<g>
	<path class="st2" d="M974.9,93.4c0.5,8.7-1.5,17.4-6,25c-4.4,7.5-11,13.6-18.9,17.4c-7.9,3.8-16.7,5.2-25.4,3.9
		c-8.7-1.2-16.8-5-23.3-10.9c-6.5-5.9-11.1-13.5-13.2-22c-2.1-8.5-1.7-17.4,1.3-25.6c3-8.2,8.3-15.4,15.3-20.6
		c7-5.2,15.5-8.2,24.2-8.5c5.7-0.3,11.5,0.5,16.9,2.4c5.4,1.9,10.4,4.9,14.7,8.7c4.3,3.8,7.7,8.5,10.2,13.7
		C973.2,82,974.6,87.7,974.9,93.4z"/>
</g>
<g>
	<path class="st3" d="M717.9,602.4c-117,0-219.8-42-272.9-104c20.6,55.8,57.8,103.9,106.6,137.9c48.8,34,106.8,52.2,166.3,52.2
		c59.5,0,117.5-18.2,166.3-52.2c48.8-34,86-82.1,106.6-137.9C937.8,560.4,835.4,602.4,717.9,602.4z"/>
</g>
<g>
	<path class="st3" d="M717.9,199.3c117,0,219.8,42,272.9,104c-20.6-55.8-57.8-103.9-106.6-137.9c-48.8-34-106.8-52.2-166.3-52.2
		c-59.5,0-117.5,18.2-166.3,52.2c-48.8,34-86,82.1-106.6,137.9C498.1,241.1,600.4,199.3,717.9,199.3z"/>
</g>
<g>
	<path class="st4" d="M556.9,723c0.7,11-1.9,22-7.5,31.5c-5.6,9.5-13.8,17.2-23.7,22c-9.9,4.8-21,6.5-32,5
		c-10.9-1.5-21.1-6.3-29.3-13.7c-8.2-7.4-14-17-16.7-27.7c-2.7-10.7-2.2-21.9,1.6-32.3c3.7-10.4,10.4-19.4,19.3-25.9
		c8.9-6.5,19.5-10.3,30.5-10.8c7.2-0.4,14.4,0.7,21.2,3.1c6.8,2.4,13.1,6.1,18.5,11s9.7,10.7,12.9,17.2
		C554.7,708.8,556.5,715.8,556.9,723z"/>
</g>
<g>
	<path class="st5" d="M458.3,185.1c-6.3,0.2-12.5-1.5-17.9-4.9c-5.3-3.3-9.6-8.2-12.2-13.9c-2.6-5.7-3.4-12.1-2.4-18.4
		c1-6.2,3.9-12,8.2-16.6c4.3-4.6,9.9-7.8,16-9.3c6.1-1.5,12.6-1.1,18.5,1.1c5.9,2.2,11,6.1,14.8,11.2c3.7,5.1,5.8,11.2,6.1,17.5
		c0.2,8.5-2.9,16.8-8.7,23C474.8,181.1,466.8,184.8,458.3,185.1z"/>
</g>
</svg>
