<?xml version="1.0" encoding="utf-8"?>
<!-- Generator: Adobe Illustrator 19.0.0, SVG Export Plug-In . SVG Version: 6.00 Build 0)  -->
<svg version="1.1" id="Layer_1" xmlns="http://www.w3.org/2000/svg" xmlns:xlink="http://www.w3.org/1999/xlink" x="0px" y="0px"
	 viewBox="-289 381 32 32" style="enable-background:new -289 381 32 32;" xml:space="preserve">
<style type="text/css">
	.st0{fill:url(#SVGID_1_);}
	.st1{fill:url(#SVGID_2_);}
</style>
<title>file_type_python</title>
<linearGradient id="SVGID_1_" gradientUnits="userSpaceOnUse" x1="-709.7502" y1="994.9219" x2="-709.6702" y2="994.8419" gradientTransform="matrix(189.38 0 0 -189.81 134126.7031 189230.3125)">
	<stop  offset="0" style="stop-color:#387EB8"/>
	<stop  offset="1" style="stop-color:#366994"/>
</linearGradient>
<path class="st0" d="M-273.1,381.1c-8.1,0-7.6,3.5-7.6,3.5v3.6h7.7v1.1h-10.8c0,0-5.2-0.6-5.2,7.6s4.6,7.9,4.6,7.9h2.6v-3.8
	c0,0-0.1-4.6,4.5-4.6h7.7c0,0,4.3,0.1,4.3-4.2v-7C-265.3,385.3-264.6,381.1-273.1,381.1L-273.1,381.1L-273.1,381.1z M-277.4,383.6
	c0.8,0,1.4,0.6,1.4,1.4c0,0.8-0.6,1.4-1.4,1.4c-0.8,0-1.4-0.6-1.4-1.4c0,0,0,0,0,0v0C-278.7,384.2-278.1,383.6-277.4,383.6
	L-277.4,383.6L-277.4,383.6z"/>
<linearGradient id="SVGID_2_" gradientUnits="userSpaceOnUse" x1="-710.0515" y1="995.2082" x2="-709.9601" y2="995.1282" gradientTransform="matrix(189.38 0 0 -189.81 134192.7031 189294.5625)">
	<stop  offset="0" style="stop-color:#FFE052"/>
	<stop  offset="1" style="stop-color:#FFC331"/>
</linearGradient>
<path class="st1" d="M-272.9,412.9c8.1,0,7.6-3.5,7.6-3.5v-3.6h-7.7v-1.1h10.8c0,0,5.2,0.6,5.2-7.6c0-8.2-4.6-7.9-4.6-7.9h-2.7v3.8
	c0,0,0.1,4.6-4.5,4.6h-7.7c0,0-4.3-0.1-4.3,4.2v7C-280.8,408.7-281.4,412.9-272.9,412.9L-272.9,412.9L-272.9,412.9z M-268.6,410.4
	c-0.8,0-1.4-0.6-1.4-1.4s0.6-1.4,1.4-1.4c0.8,0,1.4,0.6,1.4,1.4c0,0,0,0,0,0v0C-267.3,409.8-267.9,410.4-268.6,410.4
	C-268.7,410.4-268.7,410.4-268.6,410.4L-268.6,410.4L-268.6,410.4z"/>
</svg>
