<?xml version="1.0" encoding="utf-8"?>
<!-- Generator: Adobe Illustrator 19.0.0, SVG Export Plug-In . SVG Version: 6.00 Build 0)  -->
<svg version="1.1" id="Layer_1" xmlns="http://www.w3.org/2000/svg" xmlns:xlink="http://www.w3.org/1999/xlink" x="0px" y="0px"
	 viewBox="-289 381 32 32" style="enable-background:new -289 381 32 32;" xml:space="preserve">
<style type="text/css">
	.st0{fill:#007ACC;}
	.st1{fill:#FFFFFF;}
</style>
<title>file_type_typescript_official</title>
<polygon class="st0" points="-289,397 -289,413 -273,413 -257,413 -257,397 -257,381 -273,381 -289,381 "/>
<path class="st1" d="M-264.4,395.9c0.7,0.2,1.3,0.5,1.8,1c0.3,0.3,0.5,0.6,0.7,0.9c0,0-1.2,0.9-1.9,1.3c0,0-0.1-0.1-0.3-0.3
	c-0.3-0.5-0.8-0.8-1.3-0.8c-0.8-0.1-1.4,0.4-1.4,1.1c0,0.2,0,0.4,0.1,0.5c0.2,0.4,0.5,0.6,1.6,1.1c2,0.9,2.9,1.4,3.4,2.2
	c0.6,1,0.7,2.3,0.3,3.4c-0.6,1.2-1.7,2.1-3.1,2.2c-0.7,0.1-1.4,0.1-2.1,0c-1.1-0.2-2.1-0.7-2.8-1.5c-0.3-0.3-0.5-0.7-0.7-1.1
	c0.1-0.1,0.2-0.1,0.3-0.2c0.1-0.1,0.6-0.3,1-0.6l0.8-0.5l0.2,0.2c0.3,0.4,0.6,0.8,1.1,1c0.9,0.5,1.9,0.4,2.7-0.1
	c0.4-0.4,0.5-1.1,0.2-1.6c-0.2-0.3-0.7-0.6-1.9-1.1c-1-0.3-1.9-0.9-2.6-1.6c-0.4-0.4-0.6-0.9-0.8-1.4c-0.1-0.6-0.1-1.2,0-1.8
	c0.3-1.4,1.5-2.5,2.9-2.7C-265.9,395.7-265.1,395.8-264.4,395.9z M-271,397.1l0,1.1h-3.6v10.4h-2.6v-10.4h-3.6v-1.1
	c0-0.4,0-0.8,0-1.2c0,0,2.2,0,4.9,0l4.9,0L-271,397.1z"/>
</svg>
